<svg xmlns="http://www.w3.org/2000/svg" viewBox="0 0 64 64"><g id="PC_WARNING" data-name="PC WARNING"><path d="M32,16.3,22.73,32.35H41.27ZM31,21a1,1,0,0,1,2,0v5a1,1,0,0,1-2,0Zm1,10a1.25,1.25,0,0,1,0-2.5A1.25,1.25,0,0,1,32,31Z"/><path d="M17,39H59V11.56A3.57,3.57,0,0,0,55.44,8H8.56A3.57,3.57,0,0,0,5,11.56V39h6a1,1,0,0,1,0,2H5c-.16,2.82,0,5.8,3.56,6H55.44c3.52-.21,3.73-3.16,3.56-6H17A1,1,0,0,1,17,39Zm3.13-6.15,11-19a1,1,0,0,1,1.74,0l11,19.05a1,1,0,0,1,0,1,1,1,0,0,1-.87.5H21A1,1,0,0,1,20.13,32.85ZM32,42a2,2,0,0,1,0,4A2,2,0,0,1,32,42ZM14.71,40.71a1,1,0,1,1,0-1.42A1,1,0,0,1,14.71,40.71Z"/><path d="M42,56H39.45c.87-3.11-1.41-6.76-4.69-7-.13,0-4.7,0-5,0-3.51-.13-6.15,3.69-5.22,7H22a1,1,0,0,0,0,2H42A1,1,0,0,0,42,56Z"/></g></svg>