<?xml version="1.0" encoding="UTF-8" standalone="no"?> <svg id="Layer_1" data-name="Layer 1" xmlns="http://www.w3.org/2000/svg" viewBox="0 0 24 24"><title>communication, message, chat, text, talk</title><path d="M12,2.41c-6.73,0-12,3.46-12,7.88,0,3.59,3.53,6.63,8.69,7.58l.2,2.33A1.52,1.52,0,0,0,10,21.53a1.61,1.61,0,0,0,.44.06A1.5,1.5,0,0,0,11.59,21l2.36-3C19.8,17.45,24,14.22,24,10.29,24,5.87,18.73,2.41,12,2.41Zm1.36,13.7-.43,0-2.15,2.68-.24-2.7L9.75,16C5.26,15.39,2,13,2,10.29,2,7.1,6.58,4.41,12,4.41S22,7.1,22,10.29C22,13.16,18.2,15.71,13.36,16.11Z"/><rect x="7" y="9.41" width="2" height="2"/><rect x="11" y="9.41" width="2" height="2"/><rect x="15" y="9.41" width="2" height="2"/></svg>